<svg width="20" height="20" viewBox="0 0 20 20" fill="none" xmlns="http://www.w3.org/2000/svg">
<g clip-path="url(#clip0)">
<path d="M13.7419 7.15C13.7325 6.92314 13.6481 6.69814 13.4743 6.525C13.3012 6.35186 13.0762 6.2669 12.8493 6.25748C12.5969 6.24686 12.3412 6.33186 12.1488 6.525L10 8.67438L7.85124 6.525C7.65814 6.33186 7.40314 6.24748 7.15062 6.25748C6.92376 6.26686 6.69876 6.35124 6.52562 6.525C6.35252 6.69814 6.26752 6.92314 6.2581 7.15C6.24748 7.40252 6.33248 7.65748 6.52562 7.85062L8.67438 10L6.52562 12.1488C6.33248 12.3419 6.2481 12.5969 6.2581 12.8493C6.26748 13.0762 6.35186 13.3012 6.52562 13.4743C6.69876 13.6475 6.92376 13.7325 7.15062 13.7419C7.40314 13.7525 7.65814 13.6675 7.85124 13.4743L10 11.3256L12.1494 13.475C12.3425 13.6681 12.5975 13.7525 12.85 13.7425C13.0769 13.7331 13.3019 13.6488 13.475 13.475C13.6481 13.3019 13.7331 13.0769 13.7425 12.85C13.7531 12.5975 13.6681 12.3425 13.475 12.1494L11.3256 10L13.4743 7.85124C13.6675 7.65814 13.7525 7.40314 13.7419 7.15ZM10 0C4.47752 0 0 4.47752 0 10C0 15.5225 4.47752 20 10 20C15.5225 20 20 15.5225 20 10C20 4.47752 15.5225 0 10 0ZM10 18.125C5.52 18.125 1.875 14.48 1.875 10C1.875 5.52 5.52 1.875 10 1.875C14.48 1.875 18.125 5.52 18.125 10C18.125 14.48 14.48 18.125 10 18.125Z" fill="#828282"/>
</g>
<defs>
<clipPath id="clip0">
<rect width="20" height="20" fill="white"/>
</clipPath>
</defs>
</svg>
